<?xml version="1.0" encoding="UTF-8" ?>
<svg version="1.1" width="3200" height="3200" xmlns="http://www.w3.org/2000/svg" shape-rendering="crispEdges">
<rect x="1600" y="100" width="100" height="100" fill="#4B3D44" />
<rect x="1700" y="100" width="100" height="100" fill="#4B3D44" />
<rect x="1300" y="200" width="100" height="100" fill="#574852" />
<rect x="1400" y="200" width="100" height="100" fill="#574852" />
<rect x="1500" y="200" width="100" height="100" fill="#574852" />
<rect x="1600" y="200" width="100" height="100" fill="#4B3D44" />
<rect x="1700" y="200" width="100" height="100" fill="#4B3D44" />
<rect x="1800" y="200" width="100" height="100" fill="#4B3D44" />
<rect x="1900" y="200" width="100" height="100" fill="#574852" />
<rect x="2000" y="200" width="100" height="100" fill="#574852" />
<rect x="1200" y="300" width="100" height="100" fill="#4B3D44" />
<rect x="1300" y="300" width="100" height="100" fill="#D2C9A5" />
<rect x="1400" y="300" width="100" height="100" fill="#D2C9A5" />
<rect x="1500" y="300" width="100" height="100" fill="#D2C9A5" />
<rect x="1600" y="300" width="100" height="100" fill="#D2C9A5" />
<rect x="1700" y="300" width="100" height="100" fill="#D2C9A5" />
<rect x="1800" y="300" width="100" height="100" fill="#BA9158" />
<rect x="1900" y="300" width="100" height="100" fill="#BA9158" />
<rect x="2000" y="300" width="100" height="100" fill="#BA9158" />
<rect x="2100" y="300" width="100" height="100" fill="#4B3D44" />
<rect x="1200" y="400" width="100" height="100" fill="#4B3D44" />
<rect x="1300" y="400" width="100" height="100" fill="#D2C9A5" />
<rect x="1400" y="400" width="100" height="100" fill="#D2C9A5" />
<rect x="1500" y="400" width="100" height="100" fill="#D2C9A5" />
<rect x="1600" y="400" width="100" height="100" fill="#D2C9A5" />
<rect x="1700" y="400" width="100" height="100" fill="#D2C9A5" />
<rect x="1800" y="400" width="100" height="100" fill="#BA9158" />
<rect x="1900" y="400" width="100" height="100" fill="#BA9158" />
<rect x="2000" y="400" width="100" height="100" fill="#BA9158" />
<rect x="2100" y="400" width="100" height="100" fill="#4B3D44" />
<rect x="1100" y="500" width="100" height="100" fill="#574852" />
<rect x="1200" y="500" width="100" height="100" fill="#D2C9A5" />
<rect x="1300" y="500" width="100" height="100" fill="#D2C9A5" />
<rect x="1400" y="500" width="100" height="100" fill="#D2C9A5" />
<rect x="1500" y="500" width="100" height="100" fill="#D2C9A5" />
<rect x="1600" y="500" width="100" height="100" fill="#D2C9A5" />
<rect x="1700" y="500" width="100" height="100" fill="#BA9158" />
<rect x="1800" y="500" width="100" height="100" fill="#BA9158" />
<rect x="1900" y="500" width="100" height="100" fill="#BA9158" />
<rect x="2000" y="500" width="100" height="100" fill="#BA9158" />
<rect x="2100" y="500" width="100" height="100" fill="#927441" />
<rect x="2200" y="500" width="100" height="100" fill="#574852" />
<rect x="1100" y="600" width="100" height="100" fill="#4B3D44" />
<rect x="1200" y="600" width="100" height="100" fill="#D2C9A5" />
<rect x="1300" y="600" width="100" height="100" fill="#D2C9A5" />
<rect x="1400" y="600" width="100" height="100" fill="#D2C9A5" />
<rect x="1500" y="600" width="100" height="100" fill="#D2C9A5" />
<rect x="1600" y="600" width="100" height="100" fill="#BA9158" />
<rect x="1700" y="600" width="100" height="100" fill="#BA9158" />
<rect x="1800" y="600" width="100" height="100" fill="#BA9158" />
<rect x="1900" y="600" width="100" height="100" fill="#BA9158" />
<rect x="2000" y="600" width="100" height="100" fill="#927441" />
<rect x="2100" y="600" width="100" height="100" fill="#927441" />
<rect x="2200" y="600" width="100" height="100" fill="#4B3D44" />
<rect x="1100" y="700" width="100" height="100" fill="#4B3D44" />
<rect x="1200" y="700" width="100" height="100" fill="#BA9158" />
<rect x="1300" y="700" width="100" height="100" fill="#BA9158" />
<rect x="1400" y="700" width="100" height="100" fill="#BA9158" />
<rect x="1500" y="700" width="100" height="100" fill="#BA9158" />
<rect x="1600" y="700" width="100" height="100" fill="#BA9158" />
<rect x="1700" y="700" width="100" height="100" fill="#BA9158" />
<rect x="1800" y="700" width="100" height="100" fill="#BA9158" />
<rect x="1900" y="700" width="100" height="100" fill="#927441" />
<rect x="2000" y="700" width="100" height="100" fill="#927441" />
<rect x="2100" y="700" width="100" height="100" fill="#927441" />
<rect x="2200" y="700" width="100" height="100" fill="#4B3D44" />
<rect x="1100" y="800" width="100" height="100" fill="#574852" />
<rect x="1200" y="800" width="100" height="100" fill="#BA9158" />
<rect x="1300" y="800" width="100" height="100" fill="#BA9158" />
<rect x="1400" y="800" width="100" height="100" fill="#BA9158" />
<rect x="1500" y="800" width="100" height="100" fill="#BA9158" />
<rect x="1600" y="800" width="100" height="100" fill="#BA9158" />
<rect x="1700" y="800" width="100" height="100" fill="#BA9158" />
<rect x="1800" y="800" width="100" height="100" fill="#927441" />
<rect x="1900" y="800" width="100" height="100" fill="#927441" />
<rect x="2000" y="800" width="100" height="100" fill="#927441" />
<rect x="2100" y="800" width="100" height="100" fill="#927441" />
<rect x="2200" y="800" width="100" height="100" fill="#574852" />
<rect x="1100" y="900" width="100" height="100" fill="#574852" />
<rect x="1200" y="900" width="100" height="100" fill="#927441" />
<rect x="1300" y="900" width="100" height="100" fill="#BA9158" />
<rect x="1400" y="900" width="100" height="100" fill="#BA9158" />
<rect x="1500" y="900" width="100" height="100" fill="#BA9158" />
<rect x="1600" y="900" width="100" height="100" fill="#BA9158" />
<rect x="1700" y="900" width="100" height="100" fill="#BA9158" />
<rect x="1800" y="900" width="100" height="100" fill="#927441" />
<rect x="1900" y="900" width="100" height="100" fill="#927441" />
<rect x="2000" y="900" width="100" height="100" fill="#927441" />
<rect x="2100" y="900" width="100" height="100" fill="#927441" />
<rect x="2200" y="900" width="100" height="100" fill="#574852" />
<rect x="1200" y="1000" width="100" height="100" fill="#4B3D44" />
<rect x="1300" y="1000" width="100" height="100" fill="#927441" />
<rect x="1400" y="1000" width="100" height="100" fill="#927441" />
<rect x="1500" y="1000" width="100" height="100" fill="#927441" />
<rect x="1600" y="1000" width="100" height="100" fill="#927441" />
<rect x="1700" y="1000" width="100" height="100" fill="#927441" />
<rect x="1800" y="1000" width="100" height="100" fill="#B3A555" />
<rect x="1900" y="1000" width="100" height="100" fill="#BA9158" />
<rect x="2000" y="1000" width="100" height="100" fill="#BA9158" />
<rect x="2100" y="1000" width="100" height="100" fill="#4B3D44" />
<rect x="1300" y="1100" width="100" height="100" fill="#4B3D44" />
<rect x="1400" y="1100" width="100" height="100" fill="#927441" />
<rect x="1500" y="1100" width="100" height="100" fill="#927441" />
<rect x="1600" y="1100" width="100" height="100" fill="#927441" />
<rect x="1700" y="1100" width="100" height="100" fill="#927441" />
<rect x="1800" y="1100" width="100" height="100" fill="#BA9158" />
<rect x="1900" y="1100" width="100" height="100" fill="#BA9158" />
<rect x="2000" y="1100" width="100" height="100" fill="#4B3D44" />
<rect x="1200" y="1200" width="100" height="100" fill="#4B3D44" />
<rect x="1300" y="1200" width="100" height="100" fill="#4B3D44" />
<rect x="1400" y="1200" width="100" height="100" fill="#927441" />
<rect x="1500" y="1200" width="100" height="100" fill="#927441" />
<rect x="1600" y="1200" width="100" height="100" fill="#927441" />
<rect x="1700" y="1200" width="100" height="100" fill="#BA9158" />
<rect x="1800" y="1200" width="100" height="100" fill="#BA9158" />
<rect x="1900" y="1200" width="100" height="100" fill="#BA9158" />
<rect x="2000" y="1200" width="100" height="100" fill="#4B3D44" />
<rect x="2100" y="1200" width="100" height="100" fill="#4B3D44" />
<rect x="1100" y="1300" width="100" height="100" fill="#574852" />
<rect x="1200" y="1300" width="100" height="100" fill="#927441" />
<rect x="1300" y="1300" width="100" height="100" fill="#D2C9A5" />
<rect x="1400" y="1300" width="100" height="100" fill="#D2C9A5" />
<rect x="1500" y="1300" width="100" height="100" fill="#D2C9A5" />
<rect x="1600" y="1300" width="100" height="100" fill="#D2C9A5" />
<rect x="1700" y="1300" width="100" height="100" fill="#D2C9A5" />
<rect x="1800" y="1300" width="100" height="100" fill="#BA9158" />
<rect x="1900" y="1300" width="100" height="100" fill="#BA9158" />
<rect x="2000" y="1300" width="100" height="100" fill="#BA9158" />
<rect x="2100" y="1300" width="100" height="100" fill="#BA9158" />
<rect x="2200" y="1300" width="100" height="100" fill="#574852" />
<rect x="1100" y="1400" width="100" height="100" fill="#574852" />
<rect x="1200" y="1400" width="100" height="100" fill="#927441" />
<rect x="1300" y="1400" width="100" height="100" fill="#D2C9A5" />
<rect x="1400" y="1400" width="100" height="100" fill="#D2C9A5" />
<rect x="1500" y="1400" width="100" height="100" fill="#D2C9A5" />
<rect x="1600" y="1400" width="100" height="100" fill="#D2C9A5" />
<rect x="1700" y="1400" width="100" height="100" fill="#D2C9A5" />
<rect x="1800" y="1400" width="100" height="100" fill="#BA9158" />
<rect x="1900" y="1400" width="100" height="100" fill="#BA9158" />
<rect x="2000" y="1400" width="100" height="100" fill="#BA9158" />
<rect x="2100" y="1400" width="100" height="100" fill="#BA9158" />
<rect x="2200" y="1400" width="100" height="100" fill="#574852" />
<rect x="1100" y="1500" width="100" height="100" fill="#4B3D44" />
<rect x="1200" y="1500" width="100" height="100" fill="#B3A555" />
<rect x="1300" y="1500" width="100" height="100" fill="#927441" />
<rect x="1400" y="1500" width="100" height="100" fill="#927441" />
<rect x="1500" y="1500" width="100" height="100" fill="#927441" />
<rect x="1600" y="1500" width="100" height="100" fill="#B3A555" />
<rect x="1700" y="1500" width="100" height="100" fill="#927441" />
<rect x="1800" y="1500" width="100" height="100" fill="#927441" />
<rect x="1900" y="1500" width="100" height="100" fill="#927441" />
<rect x="2000" y="1500" width="100" height="100" fill="#927441" />
<rect x="2100" y="1500" width="100" height="100" fill="#BA9158" />
<rect x="2200" y="1500" width="100" height="100" fill="#574852" />
<rect x="1200" y="1600" width="100" height="100" fill="#4B3D44" />
<rect x="1300" y="1600" width="100" height="100" fill="#4B3D44" />
<rect x="1400" y="1600" width="100" height="100" fill="#4B3D44" />
<rect x="1500" y="1600" width="100" height="100" fill="#4B3D44" />
<rect x="1600" y="1600" width="100" height="100" fill="#4B3D44" />
<rect x="1700" y="1600" width="100" height="100" fill="#4B3D44" />
<rect x="1800" y="1600" width="100" height="100" fill="#4B3D44" />
<rect x="1900" y="1600" width="100" height="100" fill="#574852" />
<rect x="2000" y="1600" width="100" height="100" fill="#574852" />
<rect x="2100" y="1600" width="100" height="100" fill="#4B3D44" />
<rect x="1300" y="1700" width="100" height="100" fill="#4B3D44" />
<rect x="1400" y="1700" width="100" height="100" fill="#927441" />
<rect x="1500" y="1700" width="100" height="100" fill="#927441" />
<rect x="1600" y="1700" width="100" height="100" fill="#927441" />
<rect x="1700" y="1700" width="100" height="100" fill="#927441" />
<rect x="1800" y="1700" width="100" height="100" fill="#927441" />
<rect x="1900" y="1700" width="100" height="100" fill="#927441" />
<rect x="2000" y="1700" width="100" height="100" fill="#4B3D44" />
<rect x="1300" y="1800" width="100" height="100" fill="#4B3D44" />
<rect x="1400" y="1800" width="100" height="100" fill="#BA9158" />
<rect x="1500" y="1800" width="100" height="100" fill="#BA9158" />
<rect x="1600" y="1800" width="100" height="100" fill="#BA9158" />
<rect x="1700" y="1800" width="100" height="100" fill="#927441" />
<rect x="1800" y="1800" width="100" height="100" fill="#927441" />
<rect x="1900" y="1800" width="100" height="100" fill="#927441" />
<rect x="2000" y="1800" width="100" height="100" fill="#4B3D44" />
<rect x="1300" y="1900" width="100" height="100" fill="#4B3D44" />
<rect x="1400" y="1900" width="100" height="100" fill="#BA9158" />
<rect x="1500" y="1900" width="100" height="100" fill="#BA9158" />
<rect x="1600" y="1900" width="100" height="100" fill="#BA9158" />
<rect x="1700" y="1900" width="100" height="100" fill="#927441" />
<rect x="1800" y="1900" width="100" height="100" fill="#927441" />
<rect x="1900" y="1900" width="100" height="100" fill="#927441" />
<rect x="2000" y="1900" width="100" height="100" fill="#4B3D44" />
<rect x="1300" y="2000" width="100" height="100" fill="#4B3D44" />
<rect x="1400" y="2000" width="100" height="100" fill="#BA9158" />
<rect x="1500" y="2000" width="100" height="100" fill="#BA9158" />
<rect x="1600" y="2000" width="100" height="100" fill="#BA9158" />
<rect x="1700" y="2000" width="100" height="100" fill="#927441" />
<rect x="1800" y="2000" width="100" height="100" fill="#927441" />
<rect x="1900" y="2000" width="100" height="100" fill="#927441" />
<rect x="2000" y="2000" width="100" height="100" fill="#4B3D44" />
<rect x="1200" y="2100" width="100" height="100" fill="#574852" />
<rect x="1300" y="2100" width="100" height="100" fill="#4B3D44" />
<rect x="1400" y="2100" width="100" height="100" fill="#BA9158" />
<rect x="1500" y="2100" width="100" height="100" fill="#D2C9A5" />
<rect x="1600" y="2100" width="100" height="100" fill="#BA9158" />
<rect x="1700" y="2100" width="100" height="100" fill="#927441" />
<rect x="1800" y="2100" width="100" height="100" fill="#927441" />
<rect x="1900" y="2100" width="100" height="100" fill="#927441" />
<rect x="2000" y="2100" width="100" height="100" fill="#4B3D44" />
<rect x="2100" y="2100" width="100" height="100" fill="#4B3D44" />
<rect x="1100" y="2200" width="100" height="100" fill="#AB9B8E" />
<rect x="1200" y="2200" width="100" height="100" fill="#4B3D44" />
<rect x="1300" y="2200" width="100" height="100" fill="#BA9158" />
<rect x="1400" y="2200" width="100" height="100" fill="#D2C9A5" />
<rect x="1500" y="2200" width="100" height="100" fill="#BA9158" />
<rect x="1600" y="2200" width="100" height="100" fill="#BA9158" />
<rect x="1700" y="2200" width="100" height="100" fill="#927441" />
<rect x="1800" y="2200" width="100" height="100" fill="#927441" />
<rect x="1900" y="2200" width="100" height="100" fill="#927441" />
<rect x="2000" y="2200" width="100" height="100" fill="#927441" />
<rect x="2100" y="2200" width="100" height="100" fill="#4B3D44" />
<rect x="1000" y="2300" width="100" height="100" fill="#AB9B8E" />
<rect x="1100" y="2300" width="100" height="100" fill="#4B3D44" />
<rect x="1200" y="2300" width="100" height="100" fill="#4B3D44" />
<rect x="1300" y="2300" width="100" height="100" fill="#BA9158" />
<rect x="1400" y="2300" width="100" height="100" fill="#D2C9A5" />
<rect x="1500" y="2300" width="100" height="100" fill="#D2C9A5" />
<rect x="1600" y="2300" width="100" height="100" fill="#BA9158" />
<rect x="1700" y="2300" width="100" height="100" fill="#BA9158" />
<rect x="1800" y="2300" width="100" height="100" fill="#BA9158" />
<rect x="1900" y="2300" width="100" height="100" fill="#927441" />
<rect x="2000" y="2300" width="100" height="100" fill="#927441" />
<rect x="2100" y="2300" width="100" height="100" fill="#4B3D44" />
<rect x="2200" y="2300" width="100" height="100" fill="#574852" />
<rect x="1000" y="2400" width="100" height="100" fill="#AB9B8E" />
<rect x="1100" y="2400" width="100" height="100" fill="#4B3D44" />
<rect x="1200" y="2400" width="100" height="100" fill="#4B3D44" />
<rect x="1300" y="2400" width="100" height="100" fill="#BA9158" />
<rect x="1400" y="2400" width="100" height="100" fill="#D2C9A5" />
<rect x="1500" y="2400" width="100" height="100" fill="#D2C9A5" />
<rect x="1600" y="2400" width="100" height="100" fill="#BA9158" />
<rect x="1700" y="2400" width="100" height="100" fill="#BA9158" />
<rect x="1800" y="2400" width="100" height="100" fill="#BA9158" />
<rect x="1900" y="2400" width="100" height="100" fill="#927441" />
<rect x="2000" y="2400" width="100" height="100" fill="#927441" />
<rect x="2100" y="2400" width="100" height="100" fill="#4B3D44" />
<rect x="2200" y="2400" width="100" height="100" fill="#4B3D44" />
<rect x="800" y="2500" width="100" height="100" fill="#AB9B8E" />
<rect x="900" y="2500" width="100" height="100" fill="#AB9B8E" />
<rect x="1000" y="2500" width="100" height="100" fill="#4B3D44" />
<rect x="1100" y="2500" width="100" height="100" fill="#D2C9A5" />
<rect x="1200" y="2500" width="100" height="100" fill="#927441" />
<rect x="1300" y="2500" width="100" height="100" fill="#927441" />
<rect x="1400" y="2500" width="100" height="100" fill="#B3A555" />
<rect x="1500" y="2500" width="100" height="100" fill="#B3A555" />
<rect x="1600" y="2500" width="100" height="100" fill="#927441" />
<rect x="1700" y="2500" width="100" height="100" fill="#927441" />
<rect x="1800" y="2500" width="100" height="100" fill="#574852" />
<rect x="1900" y="2500" width="100" height="100" fill="#574852" />
<rect x="2000" y="2500" width="100" height="100" fill="#4B3D44" />
<rect x="2100" y="2500" width="100" height="100" fill="#574852" />
<rect x="2200" y="2500" width="100" height="100" fill="#574852" />
<rect x="2300" y="2500" width="100" height="100" fill="#4B3D44" />
<rect x="800" y="2600" width="100" height="100" fill="#847875" />
<rect x="900" y="2600" width="100" height="100" fill="#4B3D44" />
<rect x="1000" y="2600" width="100" height="100" fill="#D2C9A5" />
<rect x="1100" y="2600" width="100" height="100" fill="#D2C9A5" />
<rect x="1200" y="2600" width="100" height="100" fill="#D2C9A5" />
<rect x="1300" y="2600" width="100" height="100" fill="#D2C9A5" />
<rect x="1400" y="2600" width="100" height="100" fill="#D2C9A5" />
<rect x="1500" y="2600" width="100" height="100" fill="#BA9158" />
<rect x="1600" y="2600" width="100" height="100" fill="#BA9158" />
<rect x="1700" y="2600" width="100" height="100" fill="#BA9158" />
<rect x="1800" y="2600" width="100" height="100" fill="#BA9158" />
<rect x="1900" y="2600" width="100" height="100" fill="#BA9158" />
<rect x="2000" y="2600" width="100" height="100" fill="#BA9158" />
<rect x="2100" y="2600" width="100" height="100" fill="#BA9158" />
<rect x="2200" y="2600" width="100" height="100" fill="#927441" />
<rect x="2300" y="2600" width="100" height="100" fill="#927441" />
<rect x="2400" y="2600" width="100" height="100" fill="#574852" />
<rect x="800" y="2700" width="100" height="100" fill="#847875" />
<rect x="900" y="2700" width="100" height="100" fill="#4B3D44" />
<rect x="1000" y="2700" width="100" height="100" fill="#BA9158" />
<rect x="1100" y="2700" width="100" height="100" fill="#BA9158" />
<rect x="1200" y="2700" width="100" height="100" fill="#BA9158" />
<rect x="1300" y="2700" width="100" height="100" fill="#BA9158" />
<rect x="1400" y="2700" width="100" height="100" fill="#BA9158" />
<rect x="1500" y="2700" width="100" height="100" fill="#BA9158" />
<rect x="1600" y="2700" width="100" height="100" fill="#BA9158" />
<rect x="1700" y="2700" width="100" height="100" fill="#BA9158" />
<rect x="1800" y="2700" width="100" height="100" fill="#927441" />
<rect x="1900" y="2700" width="100" height="100" fill="#927441" />
<rect x="2000" y="2700" width="100" height="100" fill="#927441" />
<rect x="2100" y="2700" width="100" height="100" fill="#927441" />
<rect x="2200" y="2700" width="100" height="100" fill="#927441" />
<rect x="2300" y="2700" width="100" height="100" fill="#927441" />
<rect x="2400" y="2700" width="100" height="100" fill="#574852" />
<rect x="800" y="2800" width="100" height="100" fill="#847875" />
<rect x="900" y="2800" width="100" height="100" fill="#4B3D44" />
<rect x="1000" y="2800" width="100" height="100" fill="#4B3D44" />
<rect x="1100" y="2800" width="100" height="100" fill="#4B3D44" />
<rect x="1200" y="2800" width="100" height="100" fill="#4B3D44" />
<rect x="1300" y="2800" width="100" height="100" fill="#4B3D44" />
<rect x="1400" y="2800" width="100" height="100" fill="#4B3D44" />
<rect x="1500" y="2800" width="100" height="100" fill="#4B3D44" />
<rect x="1600" y="2800" width="100" height="100" fill="#4B3D44" />
<rect x="1700" y="2800" width="100" height="100" fill="#4B3D44" />
<rect x="1800" y="2800" width="100" height="100" fill="#4B3D44" />
<rect x="1900" y="2800" width="100" height="100" fill="#4B3D44" />
<rect x="2000" y="2800" width="100" height="100" fill="#4B3D44" />
<rect x="2100" y="2800" width="100" height="100" fill="#4B3D44" />
<rect x="2200" y="2800" width="100" height="100" fill="#4B3D44" />
<rect x="2300" y="2800" width="100" height="100" fill="#574852" />
<rect x="2400" y="2800" width="100" height="100" fill="#4B3D44" />
<rect x="800" y="2900" width="100" height="100" fill="#847875" />
<rect x="900" y="2900" width="100" height="100" fill="#4B3D44" />
<rect x="1000" y="2900" width="100" height="100" fill="#4B3D44" />
<rect x="1100" y="2900" width="100" height="100" fill="#4B3D44" />
<rect x="1200" y="2900" width="100" height="100" fill="#4B3D44" />
<rect x="1300" y="2900" width="100" height="100" fill="#4B3D44" />
<rect x="1400" y="2900" width="100" height="100" fill="#4B3D44" />
<rect x="1500" y="2900" width="100" height="100" fill="#4B3D44" />
<rect x="1600" y="2900" width="100" height="100" fill="#4B3D44" />
<rect x="1700" y="2900" width="100" height="100" fill="#4B3D44" />
<rect x="1800" y="2900" width="100" height="100" fill="#4B3D44" />
<rect x="1900" y="2900" width="100" height="100" fill="#4B3D44" />
<rect x="2000" y="2900" width="100" height="100" fill="#4B3D44" />
<rect x="2100" y="2900" width="100" height="100" fill="#4B3D44" />
<rect x="2200" y="2900" width="100" height="100" fill="#4B3D44" />
<rect x="2300" y="2900" width="100" height="100" fill="#574852" />
<rect x="2400" y="2900" width="100" height="100" fill="#4B3D44" />
<rect x="800" y="3000" width="100" height="100" fill="#847875" />
<rect x="900" y="3000" width="100" height="100" fill="#4B3D44" />
<rect x="1000" y="3000" width="100" height="100" fill="#BA9158" />
<rect x="1100" y="3000" width="100" height="100" fill="#BA9158" />
<rect x="1200" y="3000" width="100" height="100" fill="#BA9158" />
<rect x="1300" y="3000" width="100" height="100" fill="#BA9158" />
<rect x="1400" y="3000" width="100" height="100" fill="#BA9158" />
<rect x="1500" y="3000" width="100" height="100" fill="#BA9158" />
<rect x="1600" y="3000" width="100" height="100" fill="#BA9158" />
<rect x="1700" y="3000" width="100" height="100" fill="#BA9158" />
<rect x="1800" y="3000" width="100" height="100" fill="#BA9158" />
<rect x="1900" y="3000" width="100" height="100" fill="#BA9158" />
<rect x="2000" y="3000" width="100" height="100" fill="#BA9158" />
<rect x="2100" y="3000" width="100" height="100" fill="#BA9158" />
<rect x="2200" y="3000" width="100" height="100" fill="#BA9158" />
<rect x="2300" y="3000" width="100" height="100" fill="#BA9158" />
<rect x="2400" y="3000" width="100" height="100" fill="#4B3D44" />
<rect x="800" y="3100" width="100" height="100" fill="#847875" />
<rect x="900" y="3100" width="100" height="100" fill="#4B3D44" />
<rect x="1000" y="3100" width="100" height="100" fill="#4B3D44" />
<rect x="1100" y="3100" width="100" height="100" fill="#4B3D44" />
<rect x="1200" y="3100" width="100" height="100" fill="#4B3D44" />
<rect x="1300" y="3100" width="100" height="100" fill="#4B3D44" />
<rect x="1400" y="3100" width="100" height="100" fill="#4B3D44" />
<rect x="1500" y="3100" width="100" height="100" fill="#4B3D44" />
<rect x="1600" y="3100" width="100" height="100" fill="#4B3D44" />
<rect x="1700" y="3100" width="100" height="100" fill="#4B3D44" />
<rect x="1800" y="3100" width="100" height="100" fill="#4B3D44" />
<rect x="1900" y="3100" width="100" height="100" fill="#4B3D44" />
<rect x="2000" y="3100" width="100" height="100" fill="#4B3D44" />
<rect x="2100" y="3100" width="100" height="100" fill="#574852" />
<rect x="2200" y="3100" width="100" height="100" fill="#4B3D44" />
<rect x="2300" y="3100" width="100" height="100" fill="#574852" />
<rect x="2400" y="3100" width="100" height="100" fill="#4B3D44" />
</svg>